# xmcd
#
# Track frame offsets:
#	150
#	9940
#	27548
#	43450
#	53643
#	69860
#	78310
#	93030
#	106900
#	118733
#	133598
#	146875
#	155520
#	173715
#	188225
#	198458
#	211603
#	223268
#
# Disc length: 3122 seconds
#
# Revision: 1
# Processed by: cddbd v1.5.2PL0 Copyright (c) Steve Scherf et al.
# Submitted via: EasyCDDAExtractor 16.0.8.1
#
DISCID=fb0c3012
DTITLE=Various Artist - Country Christmas [CD2]
DYEAR=1900
DGENRE=Country
TTITLE0=We wish you a merry christmas
TTITLE1=Angels we have heard on high
TTITLE2=June Carter and Fam. - O Christmas Tree
TTITLE3=Silver Bells
TTITLE4=O Holy Night
TTITLE5=Santa´s on his way
TTITLE6=O come all ye faithful
TTITLE7=Hallelujah
TTITLE8=Ole Kris Kringle
TTITLE9=Joy to the world
TTITLE10=God rest ye merry gentlemen
TTITLE11=Frosty the snowman
TTITLE12=Hark! The Herald Angels sing
TTITLE13=Deck the halls
TTITLE14=Santa Claus and popcorn
TTITLE15=June Carte and Fam. - Figgy Pudding
TTITLE16=Up on a house top
TTITLE17=Christmas
EXTD=
EXTT0=
EXTT1=
EXTT2=
EXTT3=
EXTT4=
EXTT5=
EXTT6=
EXTT7=
EXTT8=
EXTT9=
EXTT10=
EXTT11=
EXTT12=
EXTT13=
EXTT14=
EXTT15=
EXTT16=
EXTT17=
PLAYORDER=
